<?xml version="1.0"?>
<!DOCTYPE svg PUBLIC "-//W3C//DTD SVG 1.1//EN"
  "http://www.w3.org/Graphics/SVG/1.1/DTD/svg11.dtd">

<svg xmlns="http://www.w3.org/2000/svg" height="128" width="128" style="width: 128px; height: 128px; position: absolute; top: 50%; left: 50%; transform: translate(-50%, -50%) scale(1); z-index: 0; cursor: pointer;"><defs id="SvgjsDefs1001"><linearGradient id="SvgjsLinearGradient1013"><stop id="SvgjsStop1014" stop-color="#7d141d" offset="0"></stop><stop id="SvgjsStop1015" stop-color="#ff1e27" offset="1"></stop></linearGradient></defs><g id="SvgjsG1007" featurekey="rootContainer" transform="matrix(1,0,0,1,0,0)" fill="rgba(0,0,0,0)"><rect width="128" height="128" rx="20"></rect></g><g id="SvgjsG1008" featurekey="hmhgWD-0" transform="matrix(1.095939601632641,0,0,1.095939601632641,12.130055897900483,15.001596134064304)" fill="url(#SvgjsLinearGradient1013)"><path xmlns="http://www.w3.org/2000/svg" d="M83.765,38.895c-0.256,0-0.509,0.016-0.759,0.039l-6.975-24.519c2.235-1.218,3.752-3.589,3.752-6.314  c0-3.971-3.22-7.19-7.189-7.19c-3.971,0-7.19,3.219-7.19,7.19c0,3.971,3.22,7.188,7.19,7.188c0.133,0,0.265-0.013,0.396-0.02  L79.968,39.8c-1.555,0.781-2.841,2.019-3.669,3.547l-27.186-8.651c0.155-0.815,0.244-1.654,0.244-2.515  c0-7.376-5.982-13.359-13.359-13.359c-7.376,0-13.357,5.982-13.357,13.359c0,5.901,3.832,10.9,9.139,12.668l-3.393,16.486  c-0.74-0.089-1.492-0.139-2.258-0.139c-10.464,0-18.948,8.484-18.948,18.948c0,10.465,8.484,18.949,18.948,18.949  c10.465,0,18.949-8.484,18.949-18.949c0-2.843-0.631-5.539-1.753-7.959l33.979-19.316c1.555,1.83,3.871,2.995,6.461,2.995  c4.687,0,8.485-3.799,8.485-8.485C92.25,42.694,88.451,38.895,83.765,38.895z M41.764,69.441c-2.437-3.553-6.053-6.229-10.282-7.473  l3.392-16.486c0.372,0.032,0.746,0.058,1.125,0.058c5.404,0,10.05-3.218,12.152-7.835l27.197,8.654  c-0.04,0.335-0.066,0.674-0.066,1.021c0,0.962,0.167,1.883,0.462,2.744L41.764,69.441z"></path></g><g id="SvgjsG1009" featurekey="1RRcwp-0" transform="matrix(2.9343971741187804,0,0,2.9343971741187804,128.2560557796764,32.328018327094924)" fill="#ffffff"></g></svg>
