<?xml version="1.0"?>
<!DOCTYPE svg PUBLIC "-//W3C//DTD SVG 1.1//EN"
  "http://www.w3.org/Graphics/SVG/1.1/DTD/svg11.dtd">

<svg xmlns="http://www.w3.org/2000/svg" height="128" width="410" style="width: 410px; height: 128px; position: absolute; top: 50%; left: 50%; transform: translate(-50%, -50%) scale(1); z-index: 0; cursor: pointer;"><defs id="SvgjsDefs1001"><linearGradient id="SvgjsLinearGradient1013"><stop id="SvgjsStop1014" stop-color="#7d141d" offset="0"></stop><stop id="SvgjsStop1015" stop-color="#ff1e27" offset="1"></stop></linearGradient></defs><g id="SvgjsG1007" featurekey="rootContainer" transform="matrix(1,0,0,1,0,0)" fill="rgba(0,0,0,.05)"><rect width="410" height="128" rx="10"></rect></g><g id="SvgjsG1008" featurekey="hmhgWD-0" transform="matrix(1.095939601632641,0,0,1.095939601632641,12.130055897900483,15.001596134064304)" fill="url(#SvgjsLinearGradient1013)"><path xmlns="http://www.w3.org/2000/svg" d="M83.765,38.895c-0.256,0-0.509,0.016-0.759,0.039l-6.975-24.519c2.235-1.218,3.752-3.589,3.752-6.314  c0-3.971-3.22-7.19-7.189-7.19c-3.971,0-7.19,3.219-7.19,7.19c0,3.971,3.22,7.188,7.19,7.188c0.133,0,0.265-0.013,0.396-0.02  L79.968,39.8c-1.555,0.781-2.841,2.019-3.669,3.547l-27.186-8.651c0.155-0.815,0.244-1.654,0.244-2.515  c0-7.376-5.982-13.359-13.359-13.359c-7.376,0-13.357,5.982-13.357,13.359c0,5.901,3.832,10.9,9.139,12.668l-3.393,16.486  c-0.74-0.089-1.492-0.139-2.258-0.139c-10.464,0-18.948,8.484-18.948,18.948c0,10.465,8.484,18.949,18.948,18.949  c10.465,0,18.949-8.484,18.949-18.949c0-2.843-0.631-5.539-1.753-7.959l33.979-19.316c1.555,1.83,3.871,2.995,6.461,2.995  c4.687,0,8.485-3.799,8.485-8.485C92.25,42.694,88.451,38.895,83.765,38.895z M41.764,69.441c-2.437-3.553-6.053-6.229-10.282-7.473  l3.392-16.486c0.372,0.032,0.746,0.058,1.125,0.058c5.404,0,10.05-3.218,12.152-7.835l27.197,8.654  c-0.04,0.335-0.066,0.674-0.066,1.021c0,0.962,0.167,1.883,0.462,2.744L41.764,69.441z"></path></g><g id="SvgjsG1009" featurekey="1RRcwp-0" transform="matrix(2.9343971741187804,0,0,2.9343971741187804,128.2560557796764,32.328018327094924)" fill="#ffffff"><path d="M15.36 5 q0.28 0 0.49 0.21 t0.21 0.49 l0 13.4 q0 0.28 -0.21 0.49 t-0.49 0.21 l-1.52 0 q-0.3 0 -0.5 -0.21 t-0.2 -0.49 l0 -9.04 l-3.7 4.76 q-0.22 0.26 -0.56 0.26 l0 0 q-0.16 0 -0.32 -0.07 t-0.24 -0.21 l-6.56 -8.68 q-0.12 -0.14 -0.14 -0.35 t0.08 -0.38 t0.26 -0.28 t0.36 -0.11 l1.76 0 q0.34 0 0.56 0.28 l4.24 5.6 l4.14 -5.6 q0.22 -0.28 0.58 -0.28 l1.76 0 z M3.84 14.7 q0.28 0 0.49 0.2 t0.21 0.5 l0 3.7 q0 0.28 -0.21 0.49 t-0.49 0.21 l-1.52 0 q-0.28 0 -0.49 -0.21 t-0.21 -0.49 l0 -3.7 q0 -0.3 0.21 -0.5 t0.49 -0.2 l1.52 0 z M29.759999999999998 5 q0.3 0 0.5 0.21 t0.2 0.49 l0 1.44 q0 0.28 -0.2 0.49 t-0.5 0.21 l-7.56 0 l0 3.06 l6.68 0 q0.3 0 0.5 0.21 t0.2 0.49 l0 1.46 q0 0.28 -0.2 0.49 t-0.5 0.21 l-6.68 0 l0 3.08 l7.56 0 q0.3 0 0.5 0.21 t0.2 0.49 l0 1.44 q0 0.28 -0.2 0.49 t-0.5 0.21 l-9.76 0 q-0.28 0 -0.49 -0.21 t-0.21 -0.49 l0 -13.28 q0 -0.28 0.21 -0.49 t0.49 -0.21 l9.76 0 z M39.86 10.58 l5.62 8 q0.12 0.16 0.14 0.36 t-0.07 0.37 t-0.26 0.27 t-0.37 0.1 l-1.9 0 q-0.16 0 -0.31 -0.08 t-0.25 -0.22 l-4.74 -6.82 l-1.94 1.82 l0 4.6 q0 0.28 -0.21 0.49 t-0.49 0.21 l-1.5 0 q-0.28 0 -0.49 -0.21 t-0.21 -0.49 l0 -13.28 q0 -0.28 0.21 -0.49 t0.49 -0.21 l1.5 0 q0.28 0 0.49 0.21 t0.21 0.49 l0 4.76 l5.62 -5.28 q0.18 -0.18 0.48 -0.18 l2.12 0 q0.2 0 0.38 0.12 t0.26 0.32 t0.04 0.4 t-0.2 0.36 z M52.94 5.16 q0.24 0.2 0.24 0.54 l0 1.5 q0 0.26 -0.15 0.45 t-0.41 0.25 q-1.28 0.26 -2.18 1.22 q-1.22 1.28 -1.22 3.33 t1.22 3.35 q0.9 0.94 2.18 1.2 q0.26 0.06 0.41 0.25 t0.15 0.45 l0 1.5 q0 0.32 -0.24 0.54 q-0.22 0.16 -0.46 0.16 l-0.12 0 q-2.32 -0.38 -3.98 -2.1 q-2.08 -2.14 -2.08 -5.33 t2.08 -5.37 q1.62 -1.68 3.98 -2.08 q0.32 -0.06 0.58 0.14 z M59.22 7.1 q2.08 2.18 2.08 5.37 t-2.08 5.33 q-1.66 1.72 -3.98 2.1 l-0.12 0 q-0.24 0 -0.46 -0.16 q-0.24 -0.22 -0.24 -0.54 l0 -1.5 q0 -0.26 0.15 -0.45 t0.41 -0.25 q1.28 -0.26 2.18 -1.2 q1.22 -1.3 1.22 -3.35 t-1.22 -3.33 q-0.9 -0.96 -2.18 -1.22 q-0.26 -0.06 -0.41 -0.25 t-0.15 -0.45 l0 -1.5 q0 -0.34 0.25 -0.54 t0.57 -0.14 q2.36 0.4 3.98 2.08 z M70.38 5 q2.36 0 3.81 1.35 t1.45 3.62 t-1.43 3.62 t-3.83 1.35 l-3.78 0 l0 4.04 q0 0.28 -0.21 0.49 t-0.49 0.21 l-1.5 0 q-0.28 0 -0.49 -0.21 t-0.21 -0.49 l0 -13.28 q0 -0.28 0.21 -0.49 t0.49 -0.21 l5.98 0 z M66.6 7.82 l0 4.32 l3.68 0 q1.3 0 1.88 -0.56 t0.58 -1.61 t-0.58 -1.57 q-0.62 -0.58 -1.88 -0.58 l-3.68 0 z M87.38 12.42 q0.84 0.54 1.29 1.32 t0.45 1.74 q0 2.2 -1.7 3.42 q-1.58 1.1 -4.26 1.1 q-3.04 0 -4.7 -1.32 q-1.52 -1.22 -1.74 -3.44 q-0.04 -0.32 0.18 -0.54 t0.52 -0.22 l1.56 0 q0.28 0 0.48 0.18 t0.22 0.46 q0.04 0.52 0.27 0.89 t0.71 0.65 q0.92 0.52 2.52 0.52 q1.38 0 2.14 -0.32 q0.58 -0.26 0.78 -0.7 q0.12 -0.24 0.12 -0.62 q0 -0.24 -0.09 -0.4 t-0.29 -0.3 q-0.56 -0.38 -1.48 -0.66 q-0.8 -0.24 -2.14 -0.56 q-1.22 -0.26 -2.3 -0.7 q-1.22 -0.52 -1.92 -1.24 q-0.88 -0.88 -0.88 -2.3 q0 -1.98 1.5 -3.2 q1.46 -1.18 4.22 -1.18 t4.34 1.32 q1.48 1.22 1.58 3.14 q0.04 0.28 -0.18 0.52 q-0.24 0.2 -0.5 0.2 l-1.56 0 q-0.26 0 -0.46 -0.17 t-0.22 -0.43 q-0.06 -0.52 -0.34 -0.86 q-0.4 -0.5 -1.28 -0.74 q-0.6 -0.18 -1.53 -0.18 t-1.48 0.19 t-0.81 0.41 t-0.32 0.44 q-0.1 0.34 -0.1 0.64 q0 0.16 0.18 0.34 q0.36 0.32 0.8 0.48 q0.56 0.24 1.38 0.44 t1.71 0.42 t1.69 0.48 q0.94 0.32 1.64 0.78 z"></path></g></svg>
