<svg xmlns="http://www.w3.org/2000/svg" viewBox="0 0 400 400" width="100%" height="100%">
  <path d="M 30 40 L 85 40 A 25 25 0 0 1 135 40 L 190 40 L 190 180 L 30 180 Z" fill="#4B32A8"/>
  <text x="110" y="135" font-family="Arial, sans-serif" font-size="70" font-weight="bold" fill="white" text-anchor="middle">WA</text>

  <path d="M 210 40 L 265 40 A 25 25 0 0 1 315 40 L 370 40 L 370 180 L 210 180 Z" fill="#4B32A8"/>
  <text x="290" y="135" font-family="Arial, sans-serif" font-size="70" font-weight="bold" fill="white" text-anchor="middle">NT</text>

  <path d="M 140 180 v 30 M 160 180 v 30 M 180 180 v 30 M 220 180 v 30 M 240 180 v 30 M 260 180 v 30" stroke="#3B9298" stroke-width="8" stroke-linecap="round"/>

  <path d="M 90 230 h -20 M 90 255 h -20 M 90 280 h -20 M 90 305 h -20 M 90 330 h -20 M 90 355 h -20" stroke="#3B9298" stroke-width="8" stroke-linecap="round"/>
  <path d="M 310 230 h 20 M 310 255 h 20 M 310 280 h 20 M 310 305 h 20 M 310 330 h 20 M 310 355 h 20" stroke="#3B9298" stroke-width="8" stroke-linecap="round"/>
  <path d="M 140 380 v 20 M 165 380 v 20 M 190 380 v 20 M 210 380 v 20 M 235 380 v 20 M 260 380 v 20" stroke="#3B9298" stroke-width="8" stroke-linecap="round"/>

  <rect x="90" y="200" width="220" height="180" rx="20" fill="#3B9298"/>
  
  <rect x="100" y="210" width="200" height="160" rx="12" fill="#3B9298" stroke="#8AC5C8" stroke-width="6"/>
  
  <text x="200" y="325" font-family="Arial, sans-serif" font-size="80" font-weight="bold" fill="white" text-anchor="middle">ED</text>
</svg>
